<svg width="512" height="512" viewBox="0 0 512 512" fill="none" xmlns="http://www.w3.org/2000/svg">
  <path d="M224 150L290 184C350 214 400 250 400 320C400 390 350 440 270 470L240 485V415C240 415 290 390 290 320C290 280 270 260 240 245L224 237V150Z" fill="#10B981"/>
  <path d="M224 363L290 328C310 316 320 300 320 275C320 250 310 235 290 223L224 188V150L240 158C310 195 360 230 360 300C360 350 330 385 280 415L224 445V363Z" fill="#059669"/>
  <path d="M224 150C224 150 170 180 140 200C90 230 60 280 60 350C60 420 90 470 150 500L190 520V450C190 450 130 420 130 350C130 310 150 285 190 265L224 245V150Z" fill="#10B981"/>
</svg>
