<svg width="600" height="200" viewBox="0 0 600 200" fill="none" xmlns="http://www.w3.org/2000/svg">
  <!-- P Icon -->
  <path d="M90 60L120 78C150 96 170 110 170 140C170 170 150 188 120 202L105 210V178C105 178 130 168 130 140C130 125 120 116 105 108L90 100V60Z" fill="#10B981"/>
  <path d="M90 160L120 143C130 137 135 130 135 120C135 110 130 103 120 97L90 80V60L105 68C135 85 155 98 155 130C155 152 142 167 122 178L90 193V160Z" fill="#059669"/>
  <path d="M90 60C90 60 70 72 60 80C40 95 30 115 30 145C30 175 40 195 60 208L75 217V185C75 185 55 173 55 145C55 130 60 122 75 115L90 108V60Z" fill="#10B981"/>
  
  <!-- QRIX Text -->
  <text x="200" y="145" font-family="Arial, sans-serif" font-size="110" font-weight="700" fill="#7C3AED">QRIX</text>
</svg>
